<svg width="343" height="343" viewBox="0 0 343 343" fill="none" xmlns="http://www.w3.org/2000/svg">
<rect x="0.711792" y="0.711868" width="341.58" height="341.58" rx="12" fill="url(#paint0_linear_0_431)"/>
<path d="M164.927 119.004V205.738C164.927 230.778 161.691 264.708 110.784 264.708H74.6913L80.6141 258.548C89.4983 249.308 96.1334 238.15 100.013 225.936C100.519 225.936 101.025 225.936 101.531 225.936C112.971 225.98 125.067 226.023 125.067 203.851V79.1516L164.933 119.004H164.927Z" fill="white"/>
<path d="M178.829 119.004V205.738C178.829 230.778 182.059 264.708 232.972 264.708H269.065L264.335 260.578C253.964 251.513 246.748 239.38 243.743 225.936C243.237 225.936 242.731 225.936 242.225 225.936C230.785 225.98 218.69 226.023 218.69 203.851V79.1516L198.753 99.0747L178.823 118.998L178.829 119.004Z" fill="white"/>
<path d="M172.057 226.048L172.163 226.923C174.094 242.785 183.484 256.773 197.435 264.57H146.179C160.424 256.786 170.033 242.61 172.001 226.492L172.057 226.048Z" fill="white"/>
<defs>
<linearGradient id="paint0_linear_0_431" x1="171.502" y1="0.711868" x2="171.502" y2="342.292" gradientUnits="userSpaceOnUse">
<stop stop-color="#FE7762"/>
<stop offset="1" stop-color="#0E0E0E"/>
</linearGradient>
</defs>
</svg>
